<svg xmlns="http://www.w3.org/2000/svg" xmlns:xlink="http://www.w3.org/1999/xlink" width="920" height="196" xmlns:v="https://vecta.io/nano"><style><![CDATA[.B{fill:#969011}.C{stroke:#e3ea8e}.D{fill:#d7e162}.E{stroke-width:6}.F{stroke:#a8b034}.G{fill:#b9c113}.H{fill:#e3ea8e}.I{fill:#ceda41}.J{stroke:#d7e162}.K{stroke:#a7a913}.L{stroke:#969011}]]></style><g fill="none" fill-rule="evenodd" opacity=".6"><path d="M144.09 6.947a10.6 10.6 0 0 0-10.622 0L103.61 24.145c-3.463 1.996-5.61 5.778-5.61 9.88v33.447c0 4.104 2.148 7.885 5.61 9.88l29.856 17.198a10.6 10.6 0 0 0 10.622 0l29.855-17.198c3.464-1.996 5.612-5.778 5.612-9.88V34.026c0-4.104-2.148-7.885-5.612-9.88L144.09 6.947z" class="G"/><path d="M226.09-56.2a10.6 10.6 0 0 0-10.622 0L185.61-39.003c-3.463 1.996-5.61 5.778-5.61 9.88V4.325c0 4.104 2.148 7.885 5.61 9.88l29.856 17.198a10.6 10.6 0 0 0 10.622 0l29.855-17.198c3.464-1.996 5.612-5.778 5.612-9.88V-29.12c0-4.104-2.148-7.885-5.612-9.88L226.09-56.2z" class="B"/><use xlink:href="#B" class="H"/><path d="M61.09 71.13a10.6 10.6 0 0 0-10.622 0L20.61 88.328C17.148 90.324 15 94.106 15 98.2v33.447c0 4.104 2.148 7.885 5.61 9.88l29.856 17.198a10.6 10.6 0 0 0 10.622 0l29.855-17.198c3.464-1.996 5.612-5.778 5.612-9.88V98.2c0-4.104-2.148-7.885-5.612-9.88L61.09 71.13z" class="B"/><path d="M238.09 41.426a10.6 10.6 0 0 0-10.622 0L197.61 58.624c-3.463 1.996-5.61 5.778-5.61 9.88v33.447c0 4.104 2.148 7.885 5.61 9.88l29.856 17.198a10.6 10.6 0 0 0 10.622 0l29.855-17.198c3.464-1.996 5.612-5.778 5.612-9.88V68.505c0-4.104-2.148-7.885-5.612-9.88L238.09 41.426z" class="I"/><path d="M35.467-24.11a10.6 10.6 0 0 1 10.622 0L75.945-6.91c3.463 1.996 5.61 5.778 5.61 9.88v33.447c0 4.104-2.148 7.885-5.61 9.88L46.09 63.496a10.6 10.6 0 0 1-10.622 0L5.612 46.298C2.148 44.302 0 40.52 0 36.417V2.97c0-4.104 2.148-7.885 5.612-9.88L35.467-24.11z" class="D"/><g class="E"><path d="M154.908 10.53l24.24 14.487a13 13 0 0 1 6.331 11.159V65.94a13 13 0 0 1-6.331 11.159l-24.24 14.487a13 13 0 0 1-13.339 0L117.33 77.1A13 13 0 0 1 111 65.941V36.177a13 13 0 0 1 6.331-11.159l24.24-14.487a13 13 0 0 1 13.339 0z" class="J"/><path d="M241.908-52.617l24.24 14.487a13 13 0 0 1 6.331 11.159V2.793a13 13 0 0 1-6.331 11.159l-24.24 14.487a13 13 0 0 1-13.339 0l-24.24-14.487A13 13 0 0 1 198 2.793V-26.97a13 13 0 0 1 6.331-11.159l24.24-14.487a13 13 0 0 1 13.339 0z" class="C"/><path d="M172.908 109.91l24.24 14.487a13 13 0 0 1 6.331 11.159v29.764a13 13 0 0 1-6.331 11.159l-24.24 14.487a13 13 0 0 1-13.339 0l-24.24-14.487A13 13 0 0 1 129 165.321v-29.764a13 13 0 0 1 6.331-11.159l24.24-14.487a13 13 0 0 1 13.339 0z" class="K"/><path d="M76.908 74.714l24.24 14.487a13 13 0 0 1 6.331 11.159v29.764a13 13 0 0 1-6.331 11.159l-24.24 14.487a13 13 0 0 1-13.339 0l-24.24-14.487A13 13 0 0 1 33 130.124V100.36a13 13 0 0 1 6.331-11.159l24.24-14.487a13 13 0 0 1 13.339 0z" class="C"/><path d="M253.908 45l24.24 14.487a13 13 0 0 1 6.331 11.159v29.764a13 13 0 0 1-6.331 11.159l-24.24 14.487a13 13 0 0 1-13.339 0l-24.24-14.487A13 13 0 0 1 210 100.42V70.656a13 13 0 0 1 6.331-11.159L240.57 45a13 13 0 0 1 13.339 0z" class="L"/><path d="M46.57-26.737L22.33-12.25A13 13 0 0 0 16-1.091v29.764a13 13 0 0 0 6.331 11.159L46.57 54.32a13 13 0 0 0 13.339 0l24.24-14.487a13 13 0 0 0 6.331-11.159V-1.09a13 13 0 0 0-6.331-11.159l-24.24-14.487a13 13 0 0 0-13.339 0z" class="F"/></g><path d="M429.09 6.947a10.6 10.6 0 0 0-10.622 0L388.61 24.145c-3.463 1.996-5.61 5.778-5.61 9.88v33.447c0 4.104 2.148 7.885 5.61 9.88l29.856 17.198a10.6 10.6 0 0 0 10.622 0l29.855-17.198c3.464-1.996 5.612-5.778 5.612-9.88V34.026c0-4.104-2.148-7.885-5.612-9.88L429.09 6.947z" class="G"/><path d="M511.09-56.2a10.6 10.6 0 0 0-10.622 0L470.61-39.003c-3.463 1.996-5.61 5.778-5.61 9.88V4.325c0 4.104 2.148 7.885 5.61 9.88l29.856 17.198a10.6 10.6 0 0 0 10.622 0l29.855-17.198c3.464-1.996 5.612-5.778 5.612-9.88V-29.12c0-4.104-2.148-7.885-5.612-9.88L511.09-56.2z" class="B"/><use xlink:href="#B" x="285" class="H"/><path d="M346.09 71.13a10.6 10.6 0 0 0-10.622 0L305.61 88.328c-3.463 1.996-5.61 5.778-5.61 9.88v33.447c0 4.104 2.148 7.885 5.61 9.88l29.856 17.198a10.6 10.6 0 0 0 10.622 0l29.855-17.198c3.464-1.996 5.612-5.778 5.612-9.88V98.2c0-4.104-2.148-7.885-5.612-9.88L346.09 71.13z" class="B"/><path d="M523.09 41.426a10.6 10.6 0 0 0-10.622 0L482.61 58.624c-3.463 1.996-5.61 5.778-5.61 9.88v33.447c0 4.104 2.148 7.885 5.61 9.88l29.856 17.198a10.6 10.6 0 0 0 10.622 0l29.855-17.198c3.464-1.996 5.612-5.778 5.612-9.88V68.505c0-4.104-2.148-7.885-5.612-9.88L523.09 41.426z" class="I"/><path d="M320.467-24.11a10.6 10.6 0 0 1 10.622 0L360.945-6.91c3.463 1.996 5.61 5.778 5.61 9.88v33.447c0 4.104-2.148 7.885-5.61 9.88L331.09 63.496a10.6 10.6 0 0 1-10.622 0l-29.855-17.198c-3.464-1.996-5.612-5.778-5.612-9.88V2.97c0-4.104 2.148-7.885 5.612-9.88l29.855-17.198z" class="D"/><g class="E"><path d="M439.908 10.53l24.24 14.487a13 13 0 0 1 6.331 11.159V65.94a13 13 0 0 1-6.331 11.159l-24.24 14.487a13 13 0 0 1-13.339 0L402.33 77.1A13 13 0 0 1 396 65.941V36.177a13 13 0 0 1 6.331-11.159l24.24-14.487a13 13 0 0 1 13.339 0z" class="J"/><path d="M526.908-52.617l24.24 14.487a13 13 0 0 1 6.331 11.159V2.793a13 13 0 0 1-6.331 11.159l-24.24 14.487a13 13 0 0 1-13.339 0l-24.24-14.487A13 13 0 0 1 483 2.793V-26.97a13 13 0 0 1 6.331-11.159l24.24-14.487a13 13 0 0 1 13.339 0z" class="C"/><path d="M457.908 109.91l24.24 14.487a13 13 0 0 1 6.331 11.159v29.764a13 13 0 0 1-6.331 11.159l-24.24 14.487a13 13 0 0 1-13.339 0l-24.24-14.487A13 13 0 0 1 414 165.321v-29.764a13 13 0 0 1 6.331-11.159l24.24-14.487a13 13 0 0 1 13.339 0z" class="K"/><path d="M361.908 74.714l24.24 14.487a13 13 0 0 1 6.331 11.159v29.764a13 13 0 0 1-6.331 11.159l-24.24 14.487a13 13 0 0 1-13.339 0l-24.24-14.487A13 13 0 0 1 318 130.124V100.36a13 13 0 0 1 6.331-11.159l24.24-14.487a13 13 0 0 1 13.339 0z" class="C"/><path d="M538.908 45l24.24 14.487a13 13 0 0 1 6.331 11.159v29.764a13 13 0 0 1-6.331 11.159l-24.24 14.487a13 13 0 0 1-13.339 0l-24.24-14.487A13 13 0 0 1 495 100.42V70.656a13 13 0 0 1 6.331-11.159L525.57 45a13 13 0 0 1 13.339 0z" class="L"/><path d="M331.57-26.737L307.33-12.25A13 13 0 0 0 301-1.091v29.764a13 13 0 0 0 6.331 11.159l24.24 14.487a13 13 0 0 0 13.339 0l24.24-14.487a13 13 0 0 0 6.331-11.159V-1.09a13 13 0 0 0-6.331-11.159l-24.24-14.487a13 13 0 0 0-13.339 0z" class="F"/></g><path d="M714.09 6.947a10.6 10.6 0 0 0-10.622 0L673.61 24.145c-3.463 1.996-5.61 5.778-5.61 9.88v33.447c0 4.104 2.148 7.885 5.61 9.88l29.856 17.198a10.6 10.6 0 0 0 10.622 0l29.855-17.198c3.464-1.996 5.612-5.778 5.612-9.88V34.026c0-4.104-2.148-7.885-5.612-9.88L714.09 6.947z" class="G"/><path d="M796.09-56.2a10.6 10.6 0 0 0-10.622 0L755.61-39.003c-3.463 1.996-5.61 5.778-5.61 9.88V4.325c0 4.104 2.148 7.885 5.61 9.88l29.856 17.198a10.6 10.6 0 0 0 10.622 0l29.855-17.198c3.464-1.996 5.612-5.778 5.612-9.88V-29.12c0-4.104-2.148-7.885-5.612-9.88L796.09-56.2z" class="B"/><use xlink:href="#B" x="570" class="H"/><path d="M631.09 71.13a10.6 10.6 0 0 0-10.622 0L590.61 88.328c-3.463 1.996-5.61 5.778-5.61 9.88v33.447c0 4.104 2.148 7.885 5.61 9.88l29.856 17.198a10.6 10.6 0 0 0 10.622 0l29.855-17.198c3.464-1.996 5.612-5.778 5.612-9.88V98.2c0-4.104-2.148-7.885-5.612-9.88L631.09 71.13z" class="B"/><path d="M808.09 41.426a10.6 10.6 0 0 0-10.622 0L767.61 58.624c-3.463 1.996-5.61 5.778-5.61 9.88v33.447c0 4.104 2.148 7.885 5.61 9.88l29.856 17.198a10.6 10.6 0 0 0 10.622 0l29.855-17.198c3.464-1.996 5.612-5.778 5.612-9.88V68.505c0-4.104-2.148-7.885-5.612-9.88L808.09 41.426z" class="I"/><path d="M605.467-24.11a10.6 10.6 0 0 1 10.622 0L645.945-6.91c3.463 1.996 5.61 5.778 5.61 9.88v33.447c0 4.104-2.148 7.885-5.61 9.88L616.09 63.496a10.6 10.6 0 0 1-10.622 0l-29.855-17.198c-3.464-1.996-5.612-5.778-5.612-9.88V2.97c0-4.104 2.148-7.885 5.612-9.88l29.855-17.198z" class="D"/><g class="E"><path d="M724.908 10.53l24.24 14.487a13 13 0 0 1 6.331 11.159V65.94a13 13 0 0 1-6.331 11.159l-24.24 14.487a13 13 0 0 1-13.339 0L687.33 77.1A13 13 0 0 1 681 65.941V36.177a13 13 0 0 1 6.331-11.159l24.24-14.487a13 13 0 0 1 13.339 0z" class="J"/><path d="M811.908-52.617l24.24 14.487a13 13 0 0 1 6.331 11.159V2.793a13 13 0 0 1-6.331 11.159l-24.24 14.487a13 13 0 0 1-13.339 0l-24.24-14.487A13 13 0 0 1 768 2.793V-26.97a13 13 0 0 1 6.331-11.159l24.24-14.487a13 13 0 0 1 13.339 0z" class="C"/><path d="M742.908 109.91l24.24 14.487a13 13 0 0 1 6.331 11.159v29.764a13 13 0 0 1-6.331 11.159l-24.24 14.487a13 13 0 0 1-13.339 0l-24.24-14.487A13 13 0 0 1 699 165.321v-29.764a13 13 0 0 1 6.331-11.159l24.24-14.487a13 13 0 0 1 13.339 0z" class="K"/><path d="M646.908 74.714l24.24 14.487a13 13 0 0 1 6.331 11.159v29.764a13 13 0 0 1-6.331 11.159l-24.24 14.487a13 13 0 0 1-13.339 0l-24.24-14.487A13 13 0 0 1 603 130.124V100.36a13 13 0 0 1 6.331-11.159l24.24-14.487a13 13 0 0 1 13.339 0z" class="C"/><path d="M823.908 45l24.24 14.487a13 13 0 0 1 6.331 11.159v29.764a13 13 0 0 1-6.331 11.159l-24.24 14.487a13 13 0 0 1-13.339 0l-24.24-14.487A13 13 0 0 1 780 100.42V70.656a13 13 0 0 1 6.331-11.159L810.57 45a13 13 0 0 1 13.339 0z" class="L"/><path d="M616.57-26.737L592.33-12.25A13 13 0 0 0 586-1.091v29.764a13 13 0 0 0 6.331 11.159l24.24 14.487a13 13 0 0 0 13.339 0l24.24-14.487a13 13 0 0 0 6.331-11.159V-1.09a13 13 0 0 0-6.331-11.159l-24.24-14.487a13 13 0 0 0-13.339 0z" class="F"/></g><path d="M916.09 71.13a10.6 10.6 0 0 0-10.622 0L875.61 88.328c-3.463 1.996-5.61 5.778-5.61 9.88v33.447c0 4.104 2.148 7.885 5.61 9.88l29.856 17.198a10.6 10.6 0 0 0 10.622 0l29.855-17.198c3.464-1.996 5.612-5.778 5.612-9.88V98.2c0-4.104-2.148-7.885-5.612-9.88L916.09 71.13z" class="B"/><path d="M890.467-24.11a10.6 10.6 0 0 1 10.622 0L930.945-6.91c3.463 1.996 5.61 5.778 5.61 9.88v33.447c0 4.104-2.148 7.885-5.61 9.88L901.09 63.496a10.6 10.6 0 0 1-10.622 0l-29.855-17.198c-3.464-1.996-5.612-5.778-5.612-9.88V2.97c0-4.104 2.148-7.885 5.612-9.88l29.855-17.198z" class="D"/><g class="E"><path d="M931.908 74.714l24.24 14.487a13 13 0 0 1 6.331 11.159v29.764a13 13 0 0 1-6.331 11.159l-24.24 14.487a13 13 0 0 1-13.339 0l-24.24-14.487A13 13 0 0 1 888 130.124V100.36a13 13 0 0 1 6.331-11.159l24.24-14.487a13 13 0 0 1 13.339 0z" class="C"/><path d="M901.57-26.737L877.33-12.25A13 13 0 0 0 871-1.091v29.764a13 13 0 0 0 6.331 11.159l24.24 14.487a13 13 0 0 0 13.339 0l24.24-14.487a13 13 0 0 0 6.331-11.159V-1.09a13 13 0 0 0-6.331-11.159l-24.24-14.487a13 13 0 0 0-13.339 0z" class="F"/></g></g><defs ><path id="B" d="M157.09 106.328a10.6 10.6 0 0 0-10.622 0l-29.856 17.198c-3.463 1.996-5.61 5.778-5.61 9.88v33.447c0 4.104 2.148 7.885 5.61 9.88l29.856 17.198a10.6 10.6 0 0 0 10.622 0l29.855-17.198c3.464-1.996 5.612-5.778 5.612-9.88v-33.447c0-4.104-2.148-7.885-5.612-9.88l-29.855-17.198z"/></defs></svg>