<svg width="88" height="38" viewBox="0 0 88 38" fill="none" xmlns="http://www.w3.org/2000/svg">
<path d="M11.5603 2.72087L6.47347 5.6805C3.70355 7.29209 1.99951 10.255 1.99951 13.4596V19.2912C1.99951 22.4958 3.70354 25.4587 6.47347 27.0703L11.5603 30.0299C14.3804 31.6707 17.8677 31.6568 20.6746 29.9934L25.5882 27.0817C28.323 25.4611 30 22.518 30 19.339V13.4118C30 10.2329 28.323 7.28975 25.5882 5.66914L20.6746 2.75738C17.8677 1.09404 14.3804 1.08007 11.5603 2.72087Z" fill="#0E0F10"/>
<path fill-rule="evenodd" clip-rule="evenodd" d="M19.9099 4.04781C17.5708 2.6617 14.6648 2.65006 12.3147 4.01739L7.22781 6.97702C4.91954 8.32001 3.49951 10.7891 3.49951 13.4596V19.2912C3.49951 21.9617 4.91954 24.4308 7.22781 25.7738L12.3147 28.7334C14.6648 30.1008 17.5708 30.0891 19.9099 28.703L24.8235 25.7912C27.1025 24.4407 28.5 21.9881 28.5 19.339V13.4118C28.5 10.7627 27.1025 8.31009 24.8235 6.95957L19.9099 4.04781ZM10.806 1.42434C14.0961 -0.489917 18.1646 -0.473619 21.4393 1.46694L26.3529 4.3787C29.5435 6.26941 31.5 9.70304 31.5 13.4118V19.339C31.5 23.0478 29.5435 26.4814 26.3529 28.3721L21.4393 31.2839C18.1646 33.2244 14.0961 33.2407 10.806 31.3265L5.71913 28.3668C2.48755 26.4866 0.499512 23.0299 0.499512 19.2912V13.4596C0.499512 9.72089 2.48755 6.26417 5.71913 4.38397L10.806 1.42434Z" fill="#CDDC39"/>
<path fill-rule="evenodd" clip-rule="evenodd" d="M8.93702 27.8458C10.367 28.6827 10.8478 30.5203 10.011 31.9503L7.86812 35.612C7.03128 37.042 5.19365 37.5228 3.76367 36.686C2.33368 35.8491 1.85285 34.0115 2.68969 32.5815L4.83257 28.9198C5.66941 27.4898 7.50704 27.009 8.93702 27.8458Z" fill="#CDDC39"/>
<path d="M13 10.9902C13 10.1788 13.5885 9.48721 14.3894 9.35727C15.3397 9.2031 16.202 9.93677 16.202 10.8995V12.4182H18.7067C19.4479 12.4182 20.0487 13.019 20.0487 13.7602C20.0487 14.5013 19.4479 15.1022 18.7067 15.1022H16.202V19.1065C16.202 19.7847 16.3166 20.3258 16.5458 20.7299C16.7894 21.1339 17.2693 21.3359 17.9857 21.3359C18.3295 21.3359 18.6805 21.3071 19.0387 21.2493C19.5736 21.1457 20.138 21.4649 20.2344 22.0012L20.3192 22.4729C20.4247 23.0597 20.1071 23.6471 19.5325 23.8063C19.4275 23.8354 19.3202 23.8633 19.2106 23.89C18.7378 24.0055 18.1576 24.0632 17.4699 24.0632C16.596 24.0632 15.8725 23.9478 15.2994 23.7169C14.7264 23.4716 14.2679 23.1397 13.9241 22.7212C13.5802 22.2883 13.3367 21.7688 13.1934 21.1628C13.0645 20.5567 13 19.8857 13 19.1498V10.9902Z" fill="#CDDC39"/>
<path d="M40.364 9.03201C40.868 9.03201 41.282 9.07401 41.606 9.15801C41.942 9.24201 42.224 9.33201 42.452 9.42801L41.984 11.534C41.792 11.45 41.576 11.39 41.336 11.354C41.108 11.318 40.874 11.3 40.634 11.3C40.31 11.3 40.034 11.348 39.806 11.444C39.59 11.528 39.416 11.648 39.284 11.804C39.164 11.96 39.074 12.146 39.014 12.362C38.966 12.578 38.942 12.812 38.942 13.064V13.532H42.254V15.764H38.942V23H36.26V13.028C36.26 11.804 36.602 10.832 37.286 10.112C37.982 9.39201 39.008 9.03201 40.364 9.03201ZM46.484 23H43.802V13.532H46.484V23ZM46.736 10.796C46.736 11.288 46.574 11.678 46.25 11.966C45.938 12.242 45.566 12.38 45.134 12.38C44.702 12.38 44.324 12.242 44 11.966C43.688 11.678 43.532 11.288 43.532 10.796C43.532 10.304 43.688 9.92001 44 9.64401C44.324 9.35601 44.702 9.21201 45.134 9.21201C45.566 9.21201 45.938 9.35601 46.25 9.64401C46.574 9.92001 46.736 10.304 46.736 10.796Z" fill="#CDDC39"/>
<path d="M49.0042 13.856C49.4602 13.724 50.0482 13.604 50.7682 13.496C51.4882 13.376 52.2442 13.316 53.0361 13.316C53.8402 13.316 54.5062 13.424 55.0342 13.64C55.5742 13.844 56.0002 14.138 56.3122 14.522C56.6242 14.906 56.8462 15.362 56.9782 15.89C57.1102 16.418 57.1762 17.006 57.1762 17.654V23H54.4942V17.978C54.4942 17.114 54.3802 16.502 54.1522 16.142C53.9242 15.782 53.4982 15.602 52.8742 15.602C52.6822 15.602 52.4781 15.614 52.2621 15.638C52.0462 15.65 51.8541 15.668 51.6861 15.692V23H49.0042V13.856Z" fill="#CDDC39"/>
<path d="M61.8898 18.194C61.8898 19.022 62.0758 19.688 62.4478 20.192C62.8198 20.696 63.3718 20.948 64.1038 20.948C64.3438 20.948 64.5658 20.942 64.7698 20.93C64.9738 20.906 65.1418 20.882 65.2738 20.858V15.98C65.1058 15.872 64.8838 15.782 64.6078 15.71C64.3438 15.638 64.0738 15.602 63.7978 15.602C62.5258 15.602 61.8898 16.466 61.8898 18.194ZM67.9558 22.694C67.7158 22.766 67.4398 22.838 67.1278 22.91C66.8158 22.97 66.4858 23.024 66.1378 23.072C65.8018 23.12 65.4538 23.156 65.0938 23.18C64.7458 23.216 64.4098 23.234 64.0858 23.234C63.3058 23.234 62.6098 23.12 61.9978 22.892C61.3858 22.664 60.8698 22.34 60.4498 21.92C60.0298 21.488 59.7058 20.972 59.4778 20.372C59.2618 19.76 59.1538 19.076 59.1538 18.32C59.1538 17.552 59.2498 16.862 59.4418 16.25C59.6338 15.626 59.9098 15.098 60.2698 14.666C60.6298 14.234 61.0678 13.904 61.5838 13.676C62.1118 13.448 62.7118 13.334 63.3838 13.334C63.7558 13.334 64.0858 13.37 64.3738 13.442C64.6738 13.514 64.9738 13.616 65.2738 13.748V9.46401L67.9558 9.03201V22.694Z" fill="#CDDC39"/>
<path d="M70.017 18.338C70.017 17.498 70.143 16.766 70.395 16.142C70.659 15.506 71.001 14.978 71.421 14.558C71.841 14.138 72.321 13.82 72.861 13.604C73.413 13.388 73.977 13.28 74.553 13.28C75.897 13.28 76.959 13.694 77.739 14.522C78.519 15.338 78.909 16.544 78.909 18.14C78.909 18.296 78.903 18.47 78.891 18.662C78.879 18.842 78.867 19.004 78.855 19.148H72.771C72.831 19.7 73.089 20.138 73.545 20.462C74.001 20.786 74.613 20.948 75.381 20.948C75.873 20.948 76.353 20.906 76.821 20.822C77.301 20.726 77.691 20.612 77.991 20.48L78.351 22.658C78.207 22.73 78.015 22.802 77.775 22.874C77.535 22.946 77.265 23.006 76.965 23.054C76.677 23.114 76.365 23.162 76.029 23.198C75.693 23.234 75.357 23.252 75.021 23.252C74.169 23.252 73.425 23.126 72.789 22.874C72.165 22.622 71.643 22.28 71.223 21.848C70.815 21.404 70.509 20.882 70.305 20.282C70.113 19.682 70.017 19.034 70.017 18.338ZM76.317 17.312C76.305 17.084 76.263 16.862 76.191 16.646C76.131 16.43 76.029 16.238 75.885 16.07C75.753 15.902 75.579 15.764 75.363 15.656C75.159 15.548 74.901 15.494 74.589 15.494C74.289 15.494 74.031 15.548 73.815 15.656C73.599 15.752 73.419 15.884 73.275 16.052C73.131 16.22 73.017 16.418 72.933 16.646C72.861 16.862 72.807 17.084 72.771 17.312H76.317Z" fill="#CDDC39"/>
<path d="M86.6848 15.908C86.4448 15.848 86.1628 15.788 85.8388 15.728C85.5148 15.656 85.1668 15.62 84.7948 15.62C84.6268 15.62 84.4228 15.638 84.1828 15.674C83.9548 15.698 83.7808 15.728 83.6608 15.764V23H80.9788V14.036C81.4588 13.868 82.0228 13.712 82.6708 13.568C83.3308 13.412 84.0628 13.334 84.8668 13.334C85.0108 13.334 85.1848 13.346 85.3888 13.37C85.5928 13.382 85.7968 13.406 86.0008 13.442C86.2048 13.466 86.4088 13.502 86.6128 13.55C86.8168 13.586 86.9908 13.634 87.1348 13.694L86.6848 15.908Z" fill="#CDDC39"/>
</svg>
